<!DOCTYPE svg PUBLIC "-//W3C//DTD SVG 1.1//EN" "http://www.w3.org/Graphics/SVG/1.1/DTD/svg11.dtd">
<!-- Uploaded to: SVG Repo, www.svgrepo.com, Transformed by: SVG Repo Mixer Tools -->
<svg width="256px" height="256px" viewBox="-21 -21 142.00 142.00" xmlns="http://www.w3.org/2000/svg" version="1.1" fill="#C8A969" stroke="#C8A969">
<g id="SVGRepo_bgCarrier" stroke-width="0"/>
<g id="SVGRepo_tracerCarrier" stroke-linecap="round" stroke-linejoin="round"/>
<g id="SVGRepo_iconCarrier"> <path style="fill:#C8A969;stroke:#222222;stroke-width:1.5px;" d="m 29,34 -1,7 -7,3 -6,-4 -6.2,7 3.2,5 -3,8 -6.2,1 0.2,9 6.5,1 2.5,6 -3.9,7 6.9,7 6,-4 7,3 1,7 10,0 1,-7 6,-3 6,4 8,-7 -5,-7 2,-5 9,-1 0,-10 -8,-1 -3,-7 4,-6 -6,-7 -6,4 -8,-3 -1,-7 z m 4,14 c 9,0 18,8 18,16 0,11 -9,18 -18,18 -9,0 -17,-7 -17,-18 0,-8 8,-16 17,-16 z"/> <path style="fill:#C8A969;stroke:#222222;stroke-width:2" d="m 73,67 c 0,0 27,18 25,31 C 86,100 66,73 66,73"/> <circle cx="51" cy="51" r="26" fill="none" stroke="#222222" style="stroke-width:2"/> <circle cx="51" cy="51" r="23" fill="none" stroke="#C8A969" style="stroke-width:4"/> <circle cx="51" cy="51" r="21" fill="#eeeeee" stroke="#222222" style="stroke-width:1;fill-opacity:0.5"/> </g>
</svg>